<svg xmlns="http://www.w3.org/2000/svg" viewBox="0 0 464.4 291.21"><defs><style>.cls-1{fill:#231f20;}</style></defs><g id="Layer_2" data-name="Layer 2"><path class="cls-1" d="M50.31,199.89V91.38H68.39V19.12H122.5c0-3,0-5.77,0-8.58,0-3.15,0-6.29.08-9.44h72.27V19.16H249V55.3h36.12v18h1.77l16.22,0V235.91c-.44,0-.88.07-1.32.07H285.08v18.13H267v36H104.52c0-.3-.09-.55-.09-.8q0-26.07,0-52.13c0-1-.29-1.22-1.23-1.21-5.19,0-10.38,0-15.57,0-.39,0-.79,0-1.32-.06v-18h-18v-18Zm72.4,71.95H248.9V253.89h18V235.82h18v-72H230.75V145.73H194.82v18.13H140.67v17.9H122.48v-18h-18V145.56h72.1v-35.9h-108v90.08h18v18h18v18.06h18.12Zm108-144.44v-90H194.89v90Zm54.16,18.11V73.58H249.05v71.93ZM176.57,91.31V19.39H140.78V91.31ZM86.67,37.43V91.29h35.77V37.43Z"/><rect class="cls-1" x="2.17" y="91.38" width="48.14" height="18.29" transform="translate(52.49 201.04) rotate(180)"/><rect class="cls-1" x="284.84" y="91.38" width="49.4" height="18.29" transform="translate(619.08 201.04) rotate(180)"/><rect class="cls-1" x="334.24" y="73.09" width="18.29" height="18.29"/><rect class="cls-1" x="352.52" y="73.09" width="18.29" height="18.29"/><rect class="cls-1" x="352.52" y="91.38" width="18.29" height="18.29"/><rect class="cls-1" x="370.81" y="91.38" width="18.29" height="18.29"/><rect class="cls-1" x="407.38" y="91.38" width="18.29" height="18.29"/><rect class="cls-1" x="425.66" y="91.38" width="18.29" height="18.29"/><rect class="cls-1" x="352.52" y="36.52" width="18.29" height="18.29"/><rect class="cls-1" x="370.81" y="36.52" width="18.29" height="18.29"/><rect class="cls-1" x="407.38" y="36.52" width="18.29" height="18.29"/><rect class="cls-1" x="425.66" y="36.52" width="18.29" height="18.29"/><rect class="cls-1" x="334.24" y="54.81" width="18.29" height="18.29"/><rect class="cls-1" x="352.52" y="54.81" width="18.29" height="18.29"/><rect class="cls-1" x="425.66" y="73.09" width="18.29" height="18.29"/><rect class="cls-1" x="443.95" y="73.09" width="18.29" height="18.29"/><rect class="cls-1" x="425.66" y="54.81" width="18.29" height="18.29"/><rect class="cls-1" x="443.95" y="54.81" width="18.29" height="18.29"/><rect class="cls-1" x="370.81" y="54.81" width="18.29" height="18.29"/><rect class="cls-1" x="389.09" y="54.81" width="18.29" height="18.29"/><rect class="cls-1" x="389.09" y="73.09" width="18.29" height="18.29"/><rect class="cls-1" x="407.38" y="54.81" width="18.29" height="18.29"/><rect class="cls-1" x="443.95" y="109.66" width="18.29" height="18.29" transform="translate(906.18 237.61) rotate(180)"/><rect class="cls-1" x="425.66" y="109.66" width="18.29" height="18.29" transform="translate(869.61 237.61) rotate(180)"/><rect class="cls-1" x="425.66" y="146.23" width="18.29" height="18.29" transform="translate(869.61 310.75) rotate(180)"/><rect class="cls-1" x="407.38" y="146.23" width="18.29" height="18.29" transform="translate(833.04 310.75) rotate(180)"/><rect class="cls-1" x="370.81" y="146.23" width="18.29" height="18.29" transform="translate(759.9 310.75) rotate(180)"/><rect class="cls-1" x="352.52" y="146.23" width="18.29" height="18.29" transform="translate(723.33 310.75) rotate(180)"/><rect class="cls-1" x="443.95" y="127.95" width="18.29" height="18.29" transform="translate(906.18 274.18) rotate(180)"/><rect class="cls-1" x="425.66" y="127.95" width="18.29" height="18.29" transform="translate(869.61 274.18) rotate(180)"/><rect class="cls-1" x="352.52" y="109.66" width="18.29" height="18.29" transform="translate(723.33 237.61) rotate(180)"/><rect class="cls-1" x="334.24" y="109.66" width="18.29" height="18.29" transform="translate(686.76 237.61) rotate(180)"/><rect class="cls-1" x="352.52" y="127.95" width="18.29" height="18.29" transform="translate(723.33 274.18) rotate(180)"/><rect class="cls-1" x="334.24" y="127.95" width="18.29" height="18.29" transform="translate(686.76 274.18) rotate(180)"/><rect class="cls-1" x="407.38" y="127.95" width="18.29" height="18.29" transform="translate(833.04 274.18) rotate(180)"/><rect class="cls-1" x="389.09" y="127.95" width="18.29" height="18.29" transform="translate(796.47 274.18) rotate(180)"/><rect class="cls-1" x="389.09" y="109.66" width="18.29" height="18.29" transform="translate(796.47 237.61) rotate(180)"/><rect class="cls-1" x="370.81" y="127.95" width="18.29" height="18.29" transform="translate(759.9 274.18) rotate(180)"/></g></svg>