<svg xmlns="http://www.w3.org/2000/svg" viewBox="0 0 545.09 291.21"><defs><style>.cls-1{fill:#231f20;}</style></defs><g id="Layer_2" data-name="Layer 2"><path class="cls-1" d="M91.71,1.16H200.22V19.23h72.26V73.34c3,0,5.77,0,8.58,0l9.44.08v72.27H272.44v54.17H236.3V236h-18v1.77q0,8.12,0,16.23H55.69c0-.44-.07-.89-.07-1.33q0-7.72,0-15.45v-1.28H37.48v-18h-36V55.36c.3,0,.55-.08.79-.08q26.07,0,52.14,0c1,0,1.22-.29,1.21-1.23,0-5.19,0-10.37,0-15.56,0-.4,0-.79.06-1.33h18v-18h18ZM19.76,73.56V199.75h18V217.7H55.77v18h72V181.59h18.05V145.66H127.74V91.51h-17.9V73.32h18v-18H146v72.1h35.9v-108H91.86v18h-18v18H55.78V73.56Zm144.43,108h90V145.73h-90Zm-18.1,54.16H218V199.89H146.09Zm54.2-108.3h71.92V91.62H200.29Zm53.88-89.9H200.31V73.28h53.86Z"/><path class="cls-1" d="M452.8,290.06H344.29V272H272V217.87h-8.58l-9.44-.08V145.52h18.06V91.35H308.2V55.23h18V53.46q0-8.12,0-16.22H488.82c0,.44.07.88.07,1.32q0,7.72,0,15.45v1.28H507v18h36V235.85c-.3,0-.55.09-.8.09q-26.07,0-52.13,0c-1,0-1.22.29-1.21,1.23,0,5.19,0,10.38,0,15.57,0,.39,0,.79-.06,1.32h-18v18h-18Zm71.95-72.4V91.47h-18v-18H488.73v-18H416.68v54.09h-18v35.93h18.13V199.7h17.9v18.19h-18v18H398.47v-72.1h-35.9v108h90.08v-18h18v-18h18.05V217.66Zm-144.44-108h-90v35.83h90Zm18.11-54.16H326.49V91.32h71.93ZM344.21,163.8H272.3v35.79h71.91Zm-53.88,89.9h53.86V217.93H290.33Z"/></g></svg>