<svg id="Layer_1" data-name="Layer 1" xmlns="http://www.w3.org/2000/svg" viewBox="0 0 202.53 275.3"><defs><style>.cls-1{fill:#231f20;}</style></defs><rect class="cls-1" x="92.12" y="256.41" width="18.29" height="18.29"/><rect class="cls-1" x="110.41" y="238.12" width="18.29" height="18.29"/><rect class="cls-1" x="128.7" y="219.83" width="18.29" height="18.29"/><rect class="cls-1" x="146.99" y="201.54" width="18.29" height="18.29"/><rect class="cls-1" x="73.83" y="238.12" width="18.29" height="18.29"/><rect class="cls-1" x="55.54" y="219.83" width="18.29" height="18.29"/><rect class="cls-1" x="37.25" y="201.54" width="18.29" height="18.29"/><rect class="cls-1" x="18.96" y="183.25" width="18.29" height="18.29"/><rect class="cls-1" x="0.67" y="164.96" width="18.29" height="18.29"/><rect class="cls-1" x="0.67" y="146.67" width="18.29" height="18.29"/><rect class="cls-1" x="183.57" y="164.96" width="18.29" height="18.29"/><rect class="cls-1" x="183.57" y="146.67" width="18.29" height="18.29"/><rect class="cls-1" x="183.57" y="128.38" width="18.29" height="18.29"/><rect class="cls-1" x="0.67" y="128.38" width="18.29" height="18.29"/><rect class="cls-1" x="18.96" y="110.09" width="18.29" height="18.29"/><rect class="cls-1" x="37.25" y="91.8" width="18.29" height="18.29"/><rect class="cls-1" x="165.28" y="110.09" width="18.29" height="18.29"/><rect class="cls-1" x="146.99" y="91.8" width="18.29" height="18.29"/><rect class="cls-1" x="55.54" y="91.8" width="18.29" height="18.29"/><rect class="cls-1" x="73.83" y="110.09" width="18.29" height="18.29"/><rect class="cls-1" x="128.7" y="91.8" width="18.29" height="18.29"/><rect class="cls-1" x="110.75" y="109.75" width="18.29" height="18.29"/><rect class="cls-1" x="92.12" y="128.38" width="18.29" height="18.29"/><rect class="cls-1" x="92.12" y="91.46" width="18.29" height="18.29"/><rect class="cls-1" x="92.12" y="73.51" width="18.29" height="18.29"/><rect class="cls-1" x="92.12" y="55.22" width="18.29" height="18.29"/><rect class="cls-1" x="40.55" y="155.81" width="18.29" height="18.29"/><rect class="cls-1" x="58.84" y="174.1" width="18.29" height="18.29"/><rect class="cls-1" x="40.55" y="137.52" width="18.29" height="18.29"/><rect class="cls-1" x="110.75" y="36.93" width="18.29" height="18.29"/><rect class="cls-1" x="128.87" y="18.81" width="18.29" height="18.29"/><rect class="cls-1" x="110.66" y="0.6" width="18.29" height="18.29"/><rect class="cls-1" x="147.16" y="0.6" width="18.29" height="18.29"/><rect class="cls-1" x="147.16" y="36.93" width="18.29" height="18.29"/><rect class="cls-1" x="165.28" y="183.25" width="18.29" height="18.29"/></svg>